<svg width="25" height="23" viewBox="0 0 25 23" fill="none" xmlns="http://www.w3.org/2000/svg">
<path d="M16.0293 0.5L18.1689 2.83789L18.3174 3H22.5C23.5989 3 24.5 3.90114 24.5 5V20C24.5 21.0989 23.5989 22 22.5 22H2.5C1.40114 22 0.5 21.0989 0.5 20V5C0.5 3.90114 1.40114 3 2.5 3H6.68262L6.83105 2.83789L8.9707 0.5H16.0293ZM12.5 5.75C8.77386 5.75 5.75 8.77386 5.75 12.5C5.75 16.2261 8.77386 19.25 12.5 19.25C16.2261 19.25 19.25 16.2261 19.25 12.5C19.25 8.77386 16.2261 5.75 12.5 5.75Z" stroke="white"/>
</svg>
