<svg width="211" height="202" viewBox="0 0 211 202" fill="none" xmlns="http://www.w3.org/2000/svg">
<path d="M10.3663 151.102C-5.23374 156.702 16.8663 161.768 29.8663 163.602C28.6663 182.002 41.6996 181.268 48.3663 178.602C56.3663 176.602 68.6996 181.435 73.8663 184.102C99.8663 205.702 125.7 193.102 135.366 184.102C140.966 179.302 156.366 178.435 163.366 178.602C176.966 184.602 179.7 171.102 179.366 163.602C206.166 160.402 206.866 153.935 203.866 151.102C168.366 147.602 163.866 110.602 160.866 106.602C158.466 103.402 172.2 97.935 179.366 95.6017C190.566 88.4017 182.7 84.2684 177.366 83.1017C160.866 93.6017 159.866 78.6017 160.866 78.1017C161.666 77.7017 160.533 61.935 159.866 54.1017C153.866 8.50171 111.366 2.76837 90.8663 5.60171C54.0663 16.0017 47.1996 56.935 48.3663 76.1017C48.3663 87.7017 39.3663 85.6017 34.8663 83.1017C20.0663 83.1017 24.0329 90.7684 27.8663 94.6017C40.2663 97.4017 46.6996 103.768 48.3663 106.602C43.1663 138.602 21.533 150.102 10.3663 151.102ZM10.3663 151.102C25.9663 145.502 17.5329 149.268 10.3663 151.102Z" stroke="black" stroke-width="10"/>
</svg>
