<svg width="26" height="33" viewBox="0 0 26 33" fill="none" xmlns="http://www.w3.org/2000/svg">
<g filter="url(#filter0_dd_102_19)">
<path d="M12.75 0.5C17.3114 0.5 21 4.18864 21 8.75C21 10.2895 20.4842 12.0511 19.6768 13.8535C18.8722 15.6493 17.7952 17.4496 16.7109 19.0566C15.6276 20.6623 14.5424 22.0656 13.7285 23.0684C13.3237 23.5671 12.9863 23.9659 12.75 24.2402C12.5137 23.9659 12.1763 23.5671 11.7715 23.0684C10.9576 22.0656 9.8724 20.6623 8.78906 19.0566C7.70479 17.4496 6.62778 15.6493 5.82324 13.8535C5.01576 12.0511 4.5 10.2895 4.5 8.75C4.5 4.18864 8.18864 0.500001 12.75 0.5ZM12.75 5.125C10.7489 5.125 9.125 6.74886 9.125 8.75C9.125 10.7511 10.7489 12.375 12.75 12.375C14.7511 12.375 16.375 10.7511 16.375 8.75C16.375 6.74886 14.7511 5.125 12.75 5.125Z" stroke="white" shape-rendering="crispEdges"/>
</g>
<defs>
<filter id="filter0_dd_102_19" x="0" y="0" width="25.5" height="33" filterUnits="userSpaceOnUse" color-interpolation-filters="sRGB">
<feFlood flood-opacity="0" result="BackgroundImageFix"/>
<feColorMatrix in="SourceAlpha" type="matrix" values="0 0 0 0 0 0 0 0 0 0 0 0 0 0 0 0 0 0 127 0" result="hardAlpha"/>
<feOffset dy="4"/>
<feGaussianBlur stdDeviation="2"/>
<feComposite in2="hardAlpha" operator="out"/>
<feColorMatrix type="matrix" values="0 0 0 0 0 0 0 0 0 0 0 0 0 0 0 0 0 0 0.25 0"/>
<feBlend mode="normal" in2="BackgroundImageFix" result="effect1_dropShadow_102_19"/>
<feColorMatrix in="SourceAlpha" type="matrix" values="0 0 0 0 0 0 0 0 0 0 0 0 0 0 0 0 0 0 127 0" result="hardAlpha"/>
<feOffset dy="4"/>
<feGaussianBlur stdDeviation="2"/>
<feComposite in2="hardAlpha" operator="out"/>
<feColorMatrix type="matrix" values="0 0 0 0 0 0 0 0 0 0 0 0 0 0 0 0 0 0 0.25 0"/>
<feBlend mode="normal" in2="effect1_dropShadow_102_19" result="effect2_dropShadow_102_19"/>
<feBlend mode="normal" in="SourceGraphic" in2="effect2_dropShadow_102_19" result="shape"/>
</filter>
</defs>
</svg>
