<svg width="38" height="38" viewBox="0 0 38 38" fill="none" xmlns="http://www.w3.org/2000/svg">
<circle cx="19" cy="19" r="19" fill="#D9D9D9"/>
<path d="M24.8506 23.2096H23.9147L24.5408 23.5592C25.7017 22.3311 26.4007 20.7367 26.4007 19.0023C26.4007 15.1349 22.9533 12 18.7003 12C14.4474 12 11 15.1349 11 19.0023C11 22.8697 14.4474 26.0046 18.7003 26.0046C20.6077 26.0046 22.361 25.369 23.7115 24.3133L22.8467 23.8501V24.7011L26.3415 28L27.1707 27.2195L28 26.439L24.8506 23.2096ZM18.7003 23.8501C15.7505 23.8501 13.3693 21.6847 13.3693 19.0023C13.3693 16.3199 15.7505 14.1546 18.7003 14.1546C21.6502 14.1546 24.0314 16.3199 24.0314 19.0023C24.0314 21.6847 21.6502 23.8501 18.7003 23.8501Z" fill="#656C78"/>
</svg>
