<svg width="48" height="48" viewBox="0 0 48 48" fill="none" xmlns="http://www.w3.org/2000/svg">
<path d="M41.0984 31.6789C40.859 31.0277 40.4032 30.6792 39.884 30.3906C39.7863 30.3334 39.6966 30.2876 39.62 30.2524C39.4651 30.1723 39.3067 30.0949 39.1492 30.013C37.5309 29.155 36.2672 28.0726 35.3907 26.7896C35.1418 26.4284 34.9259 26.0455 34.7457 25.6456C34.6709 25.4318 34.6744 25.3103 34.7281 25.1994C34.7813 25.114 34.8517 25.0406 34.9349 24.9838C35.213 24.7999 35.4998 24.6134 35.6943 24.4875C36.041 24.2631 36.3156 24.0854 36.4925 23.9595C37.1569 23.4949 37.6215 23.0012 37.9119 22.4494C38.1145 22.0682 38.2327 21.6479 38.2584 21.2169C38.284 20.786 38.2166 20.3546 38.0606 19.952C37.6206 18.7939 36.5268 18.075 35.2015 18.075C34.922 18.0747 34.6432 18.1042 34.3699 18.163C34.2969 18.1788 34.2238 18.1955 34.1526 18.214C34.1649 17.422 34.1473 16.586 34.0769 15.7632C33.827 12.8706 32.8141 11.3544 31.7581 10.1453C31.0818 9.3876 30.2853 8.74658 29.4006 8.248C27.7981 7.3328 25.9809 6.86816 24 6.86816C22.0191 6.86816 20.2107 7.3328 18.6065 8.248C17.7195 8.74673 16.9214 9.38903 16.2446 10.1488C15.1886 11.3579 14.1757 12.8768 13.9258 15.7667C13.8554 16.5895 13.8378 17.4299 13.8492 18.2175C13.7779 18.199 13.7058 18.1823 13.6327 18.1665C13.3594 18.1077 13.0807 18.0782 12.8011 18.0785C11.475 18.0785 10.3794 18.7974 9.94112 19.9555C9.78447 20.3583 9.71636 20.79 9.74142 21.2214C9.76647 21.6528 9.8841 22.0737 10.0863 22.4556C10.3776 23.0074 10.8422 23.501 11.5066 23.9657C11.6826 24.0889 11.9581 24.2666 12.3048 24.4937C12.4922 24.6151 12.7659 24.7929 13.0343 24.9706C13.1282 25.0314 13.208 25.1115 13.2684 25.2056C13.3247 25.3209 13.3265 25.445 13.2429 25.6738C13.0651 26.0653 12.8527 26.4402 12.6084 26.794C11.7513 28.048 10.5246 29.111 8.95816 29.962C8.12832 30.402 7.26592 30.6959 6.9016 31.6859C6.62704 32.433 6.80656 33.2831 7.5044 33.9994C7.76051 34.2668 8.05756 34.4917 8.3844 34.6656C9.06445 35.0393 9.78759 35.3286 10.5378 35.5271C10.6926 35.5671 10.8395 35.6328 10.9725 35.7216C11.2268 35.9442 11.1907 36.2795 11.5295 36.7706C11.6996 37.0243 11.9157 37.244 12.1666 37.4182C12.8777 37.9093 13.6767 37.9401 14.5233 37.9726C15.288 38.0017 16.1548 38.0351 17.1448 38.3616C17.5549 38.4971 17.9808 38.7594 18.4745 39.0656C19.6598 39.7942 21.2826 40.7913 23.9982 40.7913C26.7139 40.7913 28.3481 39.789 29.5422 39.0577C30.0324 38.7567 30.4557 38.4971 30.8543 38.3651C31.8443 38.0378 32.7111 38.0052 33.4758 37.9762C34.3224 37.9436 35.1214 37.9128 35.8325 37.4218C36.1297 37.2145 36.3773 36.9441 36.5576 36.6298C36.8014 36.2153 36.7952 35.9258 37.024 35.7234C37.1487 35.6388 37.2867 35.5757 37.4323 35.5368C38.1927 35.3377 38.9257 35.0457 39.6147 34.6674C39.962 34.4811 40.2745 34.2364 40.5387 33.944L40.5475 33.9334C41.2022 33.233 41.3668 32.4075 41.0984 31.6789ZM38.6846 32.976C37.2123 33.7891 36.2338 33.702 35.4726 34.1922C34.8258 34.6084 35.2086 35.506 34.7386 35.8298C34.1614 36.2285 32.455 35.8017 30.2506 36.5294C28.4326 37.1305 27.2727 38.8588 24.0026 38.8588C20.7326 38.8588 19.6 37.134 17.752 36.525C15.552 35.7973 13.8422 36.2241 13.264 35.8254C12.795 35.5016 13.176 34.604 12.5301 34.1878C11.768 33.6976 10.7894 33.7847 9.31808 32.976C8.38088 32.4586 8.9124 32.1382 9.2248 31.9869C14.5576 29.405 15.4086 25.4186 15.4464 25.1229C15.4922 24.7647 15.5432 24.4831 15.149 24.1188C14.7679 23.7668 13.0774 22.7205 12.6084 22.3931C11.8322 21.851 11.4908 21.3098 11.7425 20.6446C11.9185 20.1843 12.3479 20.011 12.7985 20.011C12.9409 20.0114 13.0828 20.0273 13.2218 20.0585C14.0736 20.2433 14.9008 20.6701 15.3786 20.7854C15.4362 20.8001 15.4952 20.8081 15.5546 20.8091C15.8098 20.8091 15.8996 20.6806 15.882 20.3885C15.8274 19.4566 15.6954 17.6402 15.8424 15.9427C16.0439 13.6072 16.7963 12.45 17.6904 11.4266C18.1198 10.9346 20.1377 8.8024 23.9965 8.8024C27.8553 8.8024 29.8784 10.9258 30.3078 11.416C31.2028 12.4394 31.9561 13.5966 32.1558 15.9322C32.3028 17.6297 32.1761 19.4469 32.1162 20.3779C32.096 20.685 32.1884 20.7986 32.4436 20.7986C32.503 20.7976 32.5621 20.7896 32.6196 20.7748C33.0983 20.6595 33.9255 20.2327 34.7774 20.0479C34.9163 20.0168 35.0582 20.0008 35.2006 20.0004C35.6538 20.0004 36.0806 20.1764 36.2566 20.634C36.5083 21.2993 36.1686 21.8405 35.3916 22.3826C34.9226 22.7099 33.2321 23.7554 32.851 24.1082C32.4559 24.4726 32.5078 24.7542 32.5536 25.1123C32.5914 25.4124 33.4415 29.3988 38.7752 31.9763C39.0902 32.1338 39.6218 32.4542 38.6846 32.976Z" fill="black"/>
</svg>
