<svg width="48" height="48" viewBox="0 0 48 48" fill="none" xmlns="http://www.w3.org/2000/svg">
<g clip-path="url(#clip0_684_39)">
<path fill-rule="evenodd" clip-rule="evenodd" d="M48 0H0V48H48V0ZM39.884 30.3906C40.4032 30.6792 40.859 31.0277 41.0984 31.6789C41.3668 32.4075 41.2022 33.233 40.5475 33.9334L40.5387 33.944C40.2745 34.2364 39.962 34.4811 39.6147 34.6674C38.9257 35.0457 38.1927 35.3377 37.4323 35.5368C37.2867 35.5757 37.1487 35.6388 37.024 35.7234C36.8938 35.8386 36.8397 35.982 36.7723 36.1606C36.7212 36.2958 36.6626 36.4512 36.5576 36.6298C36.3773 36.9441 36.1297 37.2145 35.8325 37.4218C35.1214 37.9128 34.3224 37.9436 33.4758 37.9762L33.473 37.9763C32.709 38.0053 31.8431 38.0382 30.8543 38.3651C30.4557 38.4971 30.0324 38.7567 29.5422 39.0577L29.5388 39.0598C28.3449 39.7909 26.7113 40.7913 23.9982 40.7913C21.2825 40.7913 19.6598 39.7942 18.4745 39.0656C17.9808 38.7594 17.5549 38.4971 17.1448 38.3616C16.1548 38.0351 15.288 38.0017 14.5233 37.9726C13.6767 37.9401 12.8777 37.9093 12.1666 37.4182C11.9157 37.244 11.6996 37.0243 11.5295 36.7706C11.3644 36.5313 11.2883 36.329 11.2243 36.1587C11.1569 35.9795 11.1028 35.8358 10.9725 35.7216C10.8395 35.6328 10.6926 35.5671 10.5377 35.5271C9.78757 35.3286 9.06444 35.0393 8.38438 34.6656C8.05755 34.4917 7.7605 34.2668 7.50438 33.9994C6.80654 33.2831 6.62702 32.433 6.90158 31.6859C7.21251 30.841 7.88624 30.5031 8.5929 30.1487C8.71423 30.0878 8.83654 30.0265 8.95814 29.962C10.5245 29.111 11.7513 28.048 12.6084 26.794C12.8527 26.4402 13.065 26.0653 13.2429 25.6738C13.3265 25.445 13.3247 25.3209 13.2684 25.2056C13.208 25.1115 13.1282 25.0314 13.0343 24.9706C12.7659 24.7929 12.4922 24.6151 12.3048 24.4937C12.2329 24.4466 12.164 24.4016 12.0985 24.3588C11.8481 24.1953 11.6461 24.0633 11.5066 23.9657C10.8422 23.501 10.3776 23.0074 10.0863 22.4556C9.88409 22.0737 9.76646 21.6528 9.7414 21.2214C9.71635 20.79 9.78446 20.3583 9.9411 19.9555C10.3793 18.7974 11.4749 18.0785 12.8011 18.0785C13.0806 18.0782 13.3594 18.1077 13.6327 18.1665C13.7057 18.1823 13.7779 18.199 13.8492 18.2175C13.8377 17.4299 13.8553 16.5895 13.9257 15.7667C14.1757 12.8768 15.1885 11.3579 16.2445 10.1488C16.9214 9.38903 17.7195 8.74673 18.6065 8.248C20.2107 7.3328 22.0191 6.86816 24 6.86816C25.9809 6.86816 27.7981 7.3328 29.4005 8.248C30.2853 8.74658 31.0818 9.3876 31.7581 10.1453C32.8141 11.3544 33.8269 12.8706 34.0769 15.7632C34.1473 16.586 34.1649 17.422 34.1525 18.214C34.2238 18.1955 34.2969 18.1788 34.3699 18.163C34.6432 18.1042 34.922 18.0747 35.2015 18.075C36.5268 18.075 37.6206 18.7939 38.0606 19.952C38.2166 20.3546 38.284 20.786 38.2583 21.2169C38.2327 21.6479 38.1145 22.0682 37.9119 22.4494C37.6215 23.0012 37.1569 23.4949 36.4925 23.9595C36.3156 24.0854 36.041 24.2631 35.6943 24.4875C35.4998 24.6134 35.2129 24.7999 34.9349 24.9838C34.8517 25.0406 34.7813 25.114 34.7281 25.1994C34.6744 25.3103 34.6709 25.4318 34.7457 25.6456C34.9259 26.0455 35.1418 26.4284 35.3907 26.7896C36.2672 28.0726 37.5309 29.155 39.1492 30.013C39.2316 30.0559 39.3143 30.0975 39.3966 30.1389C39.4715 30.1767 39.5462 30.2142 39.62 30.2524C39.6965 30.2876 39.7863 30.3334 39.884 30.3906Z" fill="black"/>
<path d="M38.7778 31.9825C33.4441 29.4005 32.594 25.4141 32.5562 25.1185C32.5104 24.7603 32.4585 24.4787 32.8536 24.1144C33.2347 23.7624 34.9252 22.7161 35.3942 22.3887C36.1695 21.8466 36.5109 21.3054 36.2592 20.6401C36.0832 20.1799 35.6547 20.0065 35.2032 20.0065C35.0608 20.007 34.9189 20.0229 34.78 20.0541C33.9281 20.2389 33.1009 20.6657 32.6222 20.7809C32.5647 20.7958 32.5056 20.8037 32.4462 20.8047C32.191 20.8047 32.0942 20.6912 32.1188 20.3841C32.1787 19.453 32.3054 17.6358 32.1584 15.9383C31.9569 13.6028 31.2036 12.4456 30.3104 11.4221C29.8784 10.9258 27.872 8.79358 24 8.79358C20.128 8.79358 18.1242 10.9258 17.6948 11.416C16.7989 12.4394 16.0465 13.5966 15.8468 15.9321C15.6998 17.6297 15.8318 19.446 15.8864 20.3779C15.904 20.6701 15.8142 20.7985 15.559 20.7985C15.4996 20.7975 15.4405 20.7895 15.383 20.7748C14.9052 20.6595 14.078 20.2327 13.2261 20.0479C13.0872 20.0167 12.9452 20.0008 12.8028 20.0004C12.3496 20.0004 11.9228 20.1764 11.7468 20.634C11.4952 21.2993 11.8348 21.8405 12.6128 22.3825C13.0818 22.7099 14.7723 23.7553 15.1533 24.1082C15.5476 24.4725 15.4965 24.7541 15.4508 25.1123C15.4129 25.4124 14.562 29.3988 9.22916 31.9763C8.91676 32.1277 8.38524 32.448 9.32244 32.9654C10.7938 33.7785 11.7732 33.6914 12.5344 34.1816C13.1804 34.5978 12.7984 35.4954 13.2684 35.8193C13.8456 36.2179 15.552 35.7911 17.7564 36.5189C19.6044 37.1278 20.7272 38.8482 24.0044 38.8482C27.2815 38.8482 28.4369 37.1199 30.2524 36.5189C32.4524 35.7911 34.1622 36.2179 34.7404 35.8193C35.2094 35.4954 34.8284 34.5978 35.4743 34.1816C36.2355 33.6914 37.214 33.7785 38.6863 32.9654C39.6217 32.4541 39.0902 32.1338 38.7778 31.9825Z" fill="black"/>
</g>
<defs>
<clipPath id="clip0_684_39">
<rect width="48" height="48" fill="white"/>
</clipPath>
</defs>
</svg>
