<svg width="21" height="19" viewBox="0 0 21 19" fill="none" xmlns="http://www.w3.org/2000/svg">
<path d="M12.726 2.11111L14.6475 4.22222H18.9V16.8889H2.1V4.22222H6.3525L8.274 2.11111H12.726ZM13.65 0H7.35L5.4285 2.11111H2.1C0.945 2.11111 0 3.06111 0 4.22222V16.8889C0 18.05 0.945 19 2.1 19H18.9C20.055 19 21 18.05 21 16.8889V4.22222C21 3.06111 20.055 2.11111 18.9 2.11111H15.5715L13.65 0ZM10.5 7.38889C12.2325 7.38889 13.65 8.81389 13.65 10.5556C13.65 12.2972 12.2325 13.7222 10.5 13.7222C8.7675 13.7222 7.35 12.2972 7.35 10.5556C7.35 8.81389 8.7675 7.38889 10.5 7.38889ZM10.5 5.27778C7.602 5.27778 5.25 7.64222 5.25 10.5556C5.25 13.4689 7.602 15.8333 10.5 15.8333C13.398 15.8333 15.75 13.4689 15.75 10.5556C15.75 7.64222 13.398 5.27778 10.5 5.27778Z" fill="#E1E1E1"/>
</svg>
